<?xml version="1.0" standalone="no"?>
<!DOCTYPE svg PUBLIC "-//W3C//DTD SVG 20010904//EN"
 "http://www.w3.org/TR/2001/REC-SVG-20010904/DTD/svg10.dtd">
<svg version="1.0" xmlns="http://www.w3.org/2000/svg"
 width="700.000000pt" height="700.000000pt" viewBox="0 0 700.000000 700.000000"
 preserveAspectRatio="xMidYMid meet">
<metadata>
Created by potrace 1.14, written by Peter Selinger 2001-2017
</metadata>
<g transform="translate(0.000000,700.000000) scale(0.100000,-0.100000)"
fill="#000000" stroke="none">
<path d="M3960 4905 c-163 -91 -225 -116 -350 -141 -56 -12 -87 -9 -234 23
-76 17 -148 28 -160 25 -11 -2 -43 -26 -71 -52 -94 -89 -157 -130 -331 -216
-148 -73 -175 -90 -181 -112 -14 -56 3 -102 44 -121 47 -22 66 -17 228 59 137
65 251 137 326 207 26 25 42 33 60 29 13 -3 33 -7 44 -9 11 -2 36 -7 55 -11
43 -7 63 -12 115 -23 22 -5 56 -6 75 -2 19 5 50 10 67 13 115 20 203 50 313
107 102 54 160 105 160 143 0 56 -46 106 -98 106 -10 0 -37 -11 -62 -25z"/>
<path d="M4383 4763 c-33 -27 -46 -69 -33 -109 17 -50 40 -61 175 -79 99 -14
122 -18 135 -20 8 -2 47 -6 85 -10 39 -4 81 -8 94 -10 25 -4 244 -18 294 -18
23 -1 37 -13 82 -76 97 -136 213 -243 320 -292 71 -33 101 -39 221 -44 113 -4
149 10 164 65 22 84 -25 125 -147 128 -113 3 -167 22 -245 87 -76 62 -125 121
-193 229 -29 47 -55 78 -73 84 -15 6 -93 13 -173 16 -80 3 -170 8 -200 11
-126 13 -314 37 -320 41 -4 2 -42 6 -85 9 -67 5 -82 3 -101 -12z"/>
<path d="M2325 4488 c-14 -11 -35 -41 -47 -67 -44 -100 -83 -169 -134 -236
-102 -137 -121 -143 -216 -68 -35 28 -72 55 -84 61 -26 14 -73 6 -97 -16 -15
-13 -152 -209 -192 -273 -59 -96 -179 -259 -199 -273 -15 -9 -46 -20 -69 -25
-60 -11 -69 -18 -124 -91 -143 -190 -253 -402 -320 -615 -32 -101 -68 -155
-156 -230 -89 -77 -124 -126 -138 -195 -22 -103 23 -186 126 -234 62 -30 208
-68 345 -91 52 -9 106 -18 120 -21 124 -22 470 -25 590 -5 72 12 212 45 243
57 12 4 15 -4 13 -48 -2 -42 -8 -59 -29 -82 -14 -15 -36 -54 -48 -85 -48 -129
-12 -265 94 -345 58 -45 108 -56 251 -57 159 -1 218 16 283 83 36 37 127 192
228 390 17 32 37 68 46 80 16 21 18 21 44 4 68 -45 141 -112 189 -176 40 -52
53 -74 121 -213 15 -32 47 -75 72 -97 66 -58 115 -70 284 -72 175 -1 224 12
297 77 83 75 110 170 88 312 -8 51 -7 52 16 48 28 -6 886 -6 1053 0 240 8 459
21 520 30 17 2 53 7 80 10 28 4 61 8 75 11 151 28 180 5 187 -149 5 -108 16
-156 48 -208 53 -83 145 -128 261 -129 113 0 166 20 235 90 72 74 87 122 87
282 -1 180 -30 321 -94 454 l-34 71 24 54 c33 76 52 170 60 304 5 85 -31 134
-97 135 -49 0 -97 -43 -97 -89 0 -26 -6 -33 -47 -51 -56 -25 -244 -91 -321
-114 l-53 -15 -317 84 c-174 47 -329 85 -344 85 -15 0 -40 -11 -55 -24 -23
-20 -28 -32 -28 -71 0 -63 26 -84 141 -115 105 -28 90 -25 139 -35 35 -7 37
-9 17 -16 -12 -5 -52 -11 -88 -14 -36 -4 -75 -8 -87 -11 -118 -23 -677 -22
-827 1 -14 2 -47 6 -75 10 -27 3 -59 7 -70 9 -11 2 -47 7 -80 11 -32 3 -62 8
-66 10 -3 3 -21 6 -40 9 -236 31 -791 201 -1067 327 -35 16 -65 29 -67 29 -11
0 -274 130 -376 186 l-116 64 -6 67 c-7 96 -33 164 -86 230 -66 82 -126 117
-211 121 -56 3 -76 0 -123 -22 -30 -15 -78 -48 -106 -74 l-51 -48 -27 28 c-31
31 -126 68 -173 68 -16 0 -30 3 -30 7 0 17 234 353 246 353 6 0 17 -6 23 -14
6 -8 35 -24 63 -36 86 -37 194 -16 268 52 34 31 118 132 156 188 41 59 122
229 127 266 5 31 -12 72 -37 93 -26 22 -83 22 -111 -1z"/>
<path d="M4160 4180 c-23 -7 -161 -68 -315 -140 -33 -16 -94 -44 -135 -63
-189 -86 -191 -88 -207 -125 -17 -42 -11 -75 22 -108 43 -43 73 -35 330 86 55
25 163 75 240 111 77 35 147 73 155 84 23 31 29 72 13 101 -24 47 -60 66 -103
54z"/>
<path d="M5040 4167 c-14 -6 -76 -35 -139 -64 -62 -29 -114 -53 -116 -53 -3 0
-209 -96 -253 -118 -44 -22 -62 -48 -62 -90 0 -44 24 -79 65 -92 37 -12 47 -9
265 93 52 24 153 70 223 102 138 63 167 87 167 142 0 71 -78 113 -150 80z"/>
<path d="M3114 4127 c-17 -9 -111 -83 -124 -97 -3 -3 -54 -46 -115 -95 -60
-49 -112 -92 -115 -95 -3 -3 -40 -34 -82 -68 -91 -74 -108 -95 -108 -139 0
-75 93 -118 157 -71 28 20 203 164 264 217 13 11 71 58 129 106 109 89 129
113 130 155 1 63 -83 116 -136 87z"/>
<path d="M5936 3888 c-35 -32 -42 -84 -16 -128 11 -19 46 -89 78 -155 78 -161
122 -227 201 -305 69 -67 194 -140 239 -140 59 0 102 47 97 108 -4 43 -16 56
-94 97 -122 64 -164 116 -271 332 -44 87 -85 165 -92 174 -36 44 -103 51 -142
17z"/>
<path d="M4712 3529 c-35 -13 -53 -36 -62 -75 -6 -27 -4 -41 14 -67 22 -32 57
-46 152 -61 22 -3 53 -8 69 -11 70 -13 242 -45 265 -49 14 -2 63 -11 110 -19
180 -33 201 -31 233 22 24 42 21 76 -10 111 -26 28 -40 32 -198 61 -93 17
-179 32 -190 34 -11 1 -58 9 -105 18 -80 15 -104 19 -190 33 -19 3 -42 7 -50
9 -8 2 -25 -1 -38 -6z"/>
<path d="M3480 3344 c-85 -29 -216 -74 -290 -99 -188 -64 -184 -63 -203 -94
-21 -36 -21 -63 -2 -101 14 -27 28 -36 74 -45 12 -2 133 34 269 81 136 47 275
95 308 105 78 25 109 56 109 110 0 28 -7 46 -25 63 -42 41 -72 38 -240 -20z"/>
<path d="M4538 2945 c-2 -1 -34 -6 -73 -9 -38 -4 -77 -9 -85 -11 -8 -2 -46 -6
-85 -10 -38 -3 -88 -8 -110 -11 -92 -9 -133 -14 -185 -20 -79 -10 -102 -12
-127 -13 -31 -1 -72 -40 -82 -77 -15 -54 27 -113 84 -116 20 -1 136 10 185 17
14 2 54 6 90 10 36 3 81 8 100 10 125 14 231 26 270 30 25 3 57 10 72 16 31
13 59 66 53 99 -4 19 -31 70 -38 70 -1 0 -16 4 -34 9 -17 5 -33 8 -35 6z"/>
</g>
</svg>
